<svg width="24" height="24" viewBox="0 0 24 24" fill="none" xmlns="http://www.w3.org/2000/svg">
<path d="M11.5 16.9501C14.5044 16.9501 16.94 14.5145 16.94 11.5101C16.94 8.50564 14.5044 6.07007 11.5 6.07007C8.49557 6.07007 6.06 8.50564 6.06 11.5101C6.06 14.5145 8.49557 16.9501 11.5 16.9501Z" stroke="#B0BCCC" stroke-width="2" stroke-miterlimit="10"/>
<path d="M11.54 21.3899L11.53 17.9399" stroke="#B0BCCC" stroke-width="2" stroke-miterlimit="10" stroke-linecap="round"/>
<path d="M5.34003 19.17L7.55003 16.51" stroke="#B0BCCC" stroke-width="2" stroke-miterlimit="10" stroke-linecap="round"/>
<path d="M2.02002 13.4701L5.41002 12.8501" stroke="#B0BCCC" stroke-width="2" stroke-miterlimit="10" stroke-linecap="round"/>
<path d="M3.13 6.96997L6.13 8.68997" stroke="#B0BCCC" stroke-width="2" stroke-miterlimit="10" stroke-linecap="round"/>
<path d="M8.16003 2.70996L9.36003 5.94996" stroke="#B0BCCC" stroke-width="2" stroke-miterlimit="10" stroke-linecap="round"/>
<path d="M14.75 2.67993L13.59 5.92993" stroke="#B0BCCC" stroke-width="2" stroke-miterlimit="10" stroke-linecap="round"/>
<path d="M19.82 6.88989L16.84 8.63989" stroke="#B0BCCC" stroke-width="2" stroke-miterlimit="10" stroke-linecap="round"/>
<path d="M21 13.38L17.6 12.8" stroke="#B0BCCC" stroke-width="2" stroke-miterlimit="10" stroke-linecap="round"/>
<path d="M17.73 19.11L15.5 16.47" stroke="#B0BCCC" stroke-width="2" stroke-miterlimit="10" stroke-linecap="round"/>
</svg>
